<svg xmlns="http://www.w3.org/2000/svg" width="48" height="48" viewBox="0 0 1792 1792">
	<path fill="#f2eeee" d="M1792 1408v384H0v-384q45 0 85-14t59-27.5t47-37.5q30-27 51.5-38t56.5-11q24 0 44 7t31 15t33 27q29 25 47 38t58 27t86 14q45 0 85-14.5t58-27t48-37.5q21-19 32.5-27t31-15t43.5-7q35 0 56.5 11t51.5 38q28 24 47 37.5t59 27.5t85 14t85-14t59-27.5t47-37.5q30-27 51.5-38t56.5-11q34 0 55.5 11t51.5 38q28 24 47 37.5t59 27.5t85 14m0-320v192q-24 0-44-7t-31-15t-33-27q-29-25-47-38t-58-27t-85-14q-46 0-86 14t-58 27t-47 38q-22 19-33 27t-31 15t-44 7q-35 0-56.5-11t-51.5-38q-29-25-47-38t-58-27t-86-14q-45 0-85 14.5t-58 27t-48 37.5q-21 19-32.5 27t-31 15t-43.5 7q-35 0-56.5-11t-51.5-38q-28-24-47-37.5t-59-27.5t-85-14q-46 0-86 14t-58 27t-47 38q-30 27-51.5 38T0 1280v-192q0-80 56-136t136-56h64V448h256v448h256V448h256v448h256V448h256v448h64q80 0 136 56t56 136M512 224q0 77-36 118.5T384 384q-53 0-90.5-37.5T256 256q0-29 9.5-51t23.5-34t31-28t31-31.5T374.5 67T384 0q38 0 83 74t45 150m512 0q0 77-36 118.5T896 384q-53 0-90.5-37.5T768 256q0-29 9.5-51t23.5-34t31-28t31-31.5T886.5 67T896 0q38 0 83 74t45 150m512 0q0 77-36 118.5t-92 41.5q-53 0-90.5-37.5T1280 256q0-29 9.5-51t23.5-34t31-28t31-31.5t23.5-44.5t9.5-67q38 0 83 74t45 150" />
</svg>