<svg xmlns="http://www.w3.org/2000/svg" width="48" height="48" viewBox="0 0 24 24">
	<path fill="#f2eeee" d="M12 22c5.514 0 10-4.486 10-10S17.514 2 12 2S2 6.486 2 12s4.486 10 10 10m3.493-13a1.494 1.494 0 1 1-.001 2.987A1.494 1.494 0 0 1 15.493 9m-4.301 6.919a4.1 4.1 0 0 0 1.616 0q.381-.079.75-.233c.234-.1.464-.224.679-.368q.313-.214.591-.489q.275-.274.489-.592l1.658 1.117a6 6 0 0 1-1.619 1.621a6 6 0 0 1-2.149.904a6.1 6.1 0 0 1-2.414-.001a5.9 5.9 0 0 1-2.148-.903a6.1 6.1 0 0 1-1.621-1.622l1.658-1.117q.216.318.488.59a4 4 0 0 0 2.022 1.093M8.5 9a1.5 1.5 0 1 1-.001 3.001A1.5 1.5 0 0 1 8.5 9" />
</svg>