<svg xmlns="http://www.w3.org/2000/svg" width="48" height="48" viewBox="0 0 24 24">
	<path fill="#f2eeee" d="M14.154 12.462h4.077v-1h-4.077zm0-2.77h4.077v-1h-4.077zm-8.385 5.616h6.616v-.166q0-.875-.88-1.355t-2.428-.48t-2.429.48t-.879 1.355zm3.308-3.616q.633 0 1.066-.433q.434-.434.434-1.067t-.434-1.066t-1.066-.434t-1.066.434t-.434 1.066t.434 1.067t1.066.433M4.616 19q-.691 0-1.153-.462T3 17.384V6.616q0-.691.463-1.153T4.615 5h14.77q.69 0 1.152.463T21 6.616v10.769q0 .69-.463 1.153T19.385 19z" />
</svg>