<svg width="9" height="20" viewBox="0 0 9 20" fill="none" xmlns="http://www.w3.org/2000/svg">
<path d="M6.15662 0C5.65947 0 5.18269 0.19749 4.83116 0.549025C4.47962 0.900559 4.28213 1.37734 4.28213 1.87449C4.28213 2.37163 4.47962 2.84842 4.83116 3.19995C5.18269 3.55149 5.65947 3.74898 6.15662 3.74898C6.65376 3.74898 7.13055 3.55149 7.48208 3.19995C7.83362 2.84842 8.03111 2.37163 8.03111 1.87449C8.03111 1.37734 7.83362 0.900559 7.48208 0.549025C7.13055 0.19749 6.65376 0 6.15662 0ZM5.70674 5.96087C4.21965 6.08584 0.158257 9.32245 0.158257 9.32245C-0.091675 9.5099 -0.0166949 9.49741 0.183251 9.84731C0.383196 10.1847 0.358203 10.2097 0.595638 10.0473C0.84557 9.8848 1.25796 9.62237 1.94527 9.19749C4.59455 7.49795 2.37015 11.4219 1.23296 18.0326C0.783087 21.3067 3.73228 19.6196 4.49457 19.1198C5.24437 18.6324 7.25632 17.2453 7.45626 17.1078C7.73119 16.9204 7.53124 16.7704 7.3188 16.458C7.16884 16.2456 7.01888 16.3955 7.01888 16.3955C6.2066 16.9329 4.71951 18.0576 4.51957 17.3453C4.28213 16.633 5.80671 11.7468 6.64399 8.38521C6.78145 7.58543 7.15635 5.83591 5.70674 5.96087Z" fill="#383838"/>
</svg>
